# xmcd
# 
# Track frame offsets:
#     150
#     11072
#     23275
#     37473
#     49762
#     61888
#     73755
#     87188
#     100376
#     113875
#     125086
#     134714
#     144814
#     159244
# 
# Disc length: 2283
# 
# Revision: 0
# Processed by: cddbd v1.5.2PL0 Copyright (c) Steve Scherf et al.
# Submitted via: fre:ac v1.0.17
# 
DISCID=c208e90e
DTITLE=Various Artist - Mitsuyoshi Azuma presents My Guitar is Jumpin'
DYEAR=2005
DGENRE=Blues
TTITLE0=B.B. King - Everything I Do Is Wrong
TTITLE1=Johnny Guitar Watson - Too Tired
TTITLE2=Pee Wee Crayton - Telephone Is Ringing
TTITLE3=Memphis Slim - Wish Me Well
TTITLE4=Lafayette Thomas - Jumpin' In The Heart Of Town
TTITLE5=Gene Phillips - My Baby's Mistreatin' Me
TTITLE6=Saunders King - Swingin'
TTITLE7=Charles Brown - Nutmeg
TTITLE8=Joe Lutcher - Rag Mop
TTITLE9=Oscar McLollie - What You Call 'Em Joe
TTITLE10=Jimmy "T-99" Nelson - Sweetest Little Girl
TTITLE11=Lucky Enois - Zig Zag Ziggin'
TTITLE12=Three Bits Of Rhythm - Root Beer Sizzle Sazzle Sizzle
TTITLE13=Jimmy McCracklin - Reelin' And Rockin'
EXTD=blues and soul records No.61
EXTT0=
EXTT1=
EXTT2=
EXTT3=
EXTT4=
EXTT5=
EXTT6=
EXTT7=
EXTT8=
EXTT9=
EXTT10=
EXTT11=
EXTT12=
EXTT13=
PLAYORDER=
